<?xml version="1.0" encoding="utf-8"?>
<!-- Generator: Adobe Illustrator 16.0.0, SVG Export Plug-In . SVG Version: 6.00 Build 0)  -->
<svg version="1.2" baseProfile="tiny" id="Layer_1" xmlns="http://www.w3.org/2000/svg" xmlns:xlink="http://www.w3.org/1999/xlink"
	 x="0px" y="0px" width="342px" height="288px" viewBox="0 0 342 288" xml:space="preserve">
<path fill="none" stroke="#F58642" stroke-miterlimit="10" d="M44.938,77.592c2.24,10.545,3.727,21.415,6.192,31.929
	c2.83,12.064,8.585,23.175,13.218,34.612c3.151,7.778,6.508,15.979,11.699,22.645c5.304,6.813,15.845,14.822,24.788,14.847
	c9.832,0.026,18.336-11.315,24.667-17.433c5.139-4.967,8.956-10.853,13.934-15.932c5.15-5.254,9.925-12.853,18.215-11.428
	c12.246,2.105,20.427,15.103,27.47,24.023c9.231,11.69,19.977,22.548,31.313,32.225c5.308,4.529,9.761,9.825,15.309,14.297
	c3.513,2.831,7.51,5.359,10.741,8.528c1.636,1.604,2.688,3.82,4.514,5.318c5.078,4.167,12.494,5.558,18.353,8.525
	c6.088,3.084,10.217,5.485,16.927,4.089c4.613-0.96,8.411-1.553,13.273-1.553"/>
<g>
	<line fill="none" stroke="#DEDEFF" stroke-miterlimit="10" x1="44.938" y1="270.205" x2="296.939" y2="270.205"/>
	<line fill="none" stroke="#DEDEFF" stroke-miterlimit="10" x1="44.938" y1="18.204" x2="44.938" y2="270.205"/>
</g>
<path fill="none" stroke="#000000" stroke-miterlimit="10" d="M44.938,266.571"/>
<path fill="none" stroke="#000000" stroke-miterlimit="10" d="M267.531,27.326"/>
</svg>
